<?xml version="1.0" standalone="no"?>
<!DOCTYPE svg PUBLIC "-//W3C//DTD SVG 20010904//EN"
 "http://www.w3.org/TR/2001/REC-SVG-20010904/DTD/svg10.dtd">
<svg version="1.0" xmlns="http://www.w3.org/2000/svg"
 width="498.000000pt" height="498.000000pt" viewBox="0 0 498.000000 498.000000"
 preserveAspectRatio="xMidYMid meet">

<g transform="translate(0.000000,498.000000) scale(0.100000,-0.100000)"
fill="#000000" stroke="none">
<path d="M2694 4165 c-4 -8 -11 -15 -17 -15 -14 0 -67 -60 -67 -76 0 -8 -9
-31 -20 -52 -24 -45 -39 -162 -21 -162 9 0 10 -27 5 -105 -5 -69 -3 -105 3
-105 17 0 6 -95 -16 -137 -18 -33 -21 -64 -26 -223 -9 -334 -23 -447 -66 -546
-10 -23 -21 -53 -24 -67 -4 -14 -15 -33 -26 -43 -10 -9 -19 -23 -19 -31 0 -7
-4 -13 -10 -13 -5 0 -16 -16 -24 -35 -8 -19 -19 -35 -25 -35 -5 0 -12 -13 -16
-30 -4 -16 -13 -34 -22 -38 -10 -6 -21 -49 -34 -138 l-20 -129 -50 -44 c-28
-24 -55 -54 -59 -67 -5 -13 -22 -31 -37 -41 -57 -37 -65 -52 -80 -152 -8 -53
-12 -114 -8 -136 4 -22 6 -72 5 -112 -1 -41 3 -74 9 -78 6 -3 11 -25 11 -49 0
-35 -6 -49 -32 -77 l-33 -34 -135 -1 c-178 -1 -169 1 -185 -38 -8 -19 -20 -36
-27 -39 -9 -4 -10 -8 -2 -14 6 -4 14 -18 18 -29 9 -28 45 -42 124 -47 35 -2
67 -9 71 -15 6 -10 14 -9 37 3 16 8 45 15 64 15 19 0 44 7 54 15 11 8 34 15
51 15 32 0 47 -12 74 -59 12 -21 11 -26 -2 -36 -22 -16 -33 -90 -17 -110 16
-20 8 -100 -13 -123 -8 -9 -21 -46 -28 -82 -12 -68 -55 -169 -76 -183 -7 -4
-13 -15 -13 -22 0 -8 -6 -15 -14 -15 -8 0 -18 -9 -21 -20 -3 -11 -12 -20 -18
-20 -7 -1 -23 -14 -37 -30 -13 -17 -32 -30 -42 -30 -10 0 -18 -7 -18 -15 0
-10 -10 -15 -30 -15 -16 0 -33 -7 -38 -16 -6 -10 -28 -18 -58 -22 -27 -2 -52
-9 -55 -14 -4 -6 -37 -12 -75 -15 -38 -2 -85 -10 -104 -18 -19 -7 -52 -16 -74
-19 -21 -3 -41 -7 -43 -10 -10 -9 30 -56 48 -56 10 0 20 -4 24 -9 6 -11 109
-61 124 -61 6 0 11 -4 11 -10 0 -5 16 -12 35 -16 19 -3 35 -10 35 -14 0 -4 22
-13 50 -20 27 -7 48 -15 45 -20 -7 -11 94 -20 153 -13 34 4 52 10 52 19 0 8
10 14 23 14 13 0 32 7 43 15 10 8 28 15 39 15 11 0 43 15 71 33 28 19 57 37
65 41 66 33 106 74 114 119 4 21 14 41 22 45 9 6 21 48 32 118 10 60 23 119
30 131 6 12 16 46 21 75 6 30 18 60 29 69 11 9 25 41 32 72 8 32 17 57 20 57
4 0 12 22 19 50 6 27 18 54 25 60 8 6 17 24 20 40 17 78 157 151 196 103 35
-45 38 -60 29 -145 -5 -46 -14 -128 -20 -182 -7 -64 -17 -111 -29 -132 -11
-18 -24 -65 -30 -104 -7 -40 -20 -85 -31 -100 -11 -15 -22 -45 -26 -68 -3 -22
-13 -43 -20 -46 -8 -3 -14 -12 -14 -19 0 -8 -9 -22 -20 -32 -21 -19 -27 -45
-10 -45 6 0 10 -15 10 -33 0 -31 27 -67 50 -67 6 0 13 -7 16 -15 3 -8 15 -17
25 -20 11 -4 22 -19 26 -35 3 -16 12 -31 20 -34 8 -3 11 -11 8 -17 -4 -6 2
-13 14 -16 12 -3 21 -10 21 -17 1 -21 78 -48 123 -43 74 10 197 36 216 47 11
5 35 10 53 10 18 0 46 7 62 15 16 8 47 18 69 22 57 9 107 63 58 63 -11 0 -27
7 -35 16 -9 8 -32 18 -51 21 -19 3 -40 12 -46 19 -6 8 -24 14 -39 14 -15 0
-30 6 -33 14 -3 8 -16 16 -29 18 -13 2 -22 9 -21 15 2 7 -6 15 -17 18 -11 4
-20 12 -20 20 0 7 -5 15 -10 17 -20 6 -33 128 -22 193 13 70 55 195 71 204 5
4 13 26 17 49 4 26 14 47 25 52 10 6 21 26 24 48 9 53 22 82 39 82 7 0 19 7
26 15 16 20 89 20 126 0 18 -9 57 -15 104 -15 66 0 78 3 98 24 15 17 22 36 22
65 0 23 -4 41 -9 41 -5 0 -11 14 -15 30 -4 20 -14 34 -31 40 -14 5 -25 14 -25
20 0 5 -14 10 -30 10 -17 0 -33 6 -36 14 -3 8 -16 17 -29 20 -52 13 -36 78 38
154 31 33 57 65 57 71 0 6 6 11 14 11 8 0 18 19 25 45 6 25 15 45 20 45 5 0
12 14 16 30 4 17 14 38 23 47 11 10 17 38 20 82 5 94 26 139 69 147 42 8 127
-3 131 -16 2 -5 19 -12 37 -16 19 -3 39 -12 46 -20 6 -8 25 -14 41 -14 16 0
31 -6 34 -15 4 -8 14 -15 24 -15 9 0 27 -9 40 -20 13 -11 27 -20 32 -20 5 0
22 -14 38 -30 16 -16 38 -30 48 -30 10 0 29 -9 42 -20 13 -11 29 -20 37 -20 7
0 13 -7 13 -15 0 -8 5 -15 10 -15 6 0 19 -9 30 -20 11 -11 29 -20 40 -20 11 0
20 -4 20 -10 0 -5 16 -12 36 -16 19 -4 38 -13 41 -20 3 -8 12 -14 19 -14 8 0
17 -7 20 -15 4 -8 17 -15 30 -15 14 0 27 -6 30 -14 3 -8 28 -17 62 -21 31 -4
61 -14 67 -22 8 -11 16 -12 35 -4 38 16 67 42 53 48 -7 3 -13 13 -13 24 0 10
-7 19 -15 19 -8 0 -15 7 -15 15 0 8 -7 15 -15 15 -8 0 -15 7 -15 15 0 8 -9 15
-20 15 -11 0 -28 9 -37 20 -10 11 -23 20 -29 20 -6 0 -28 16 -48 35 -21 19
-43 35 -50 35 -23 0 -89 39 -116 70 -15 16 -34 30 -43 30 -10 0 -17 7 -17 15
0 9 -9 15 -23 15 -12 0 -29 9 -37 20 -8 11 -20 20 -27 20 -7 0 -13 7 -13 15 0
8 -6 15 -14 15 -8 0 -16 7 -20 15 -3 8 -17 15 -31 15 -14 0 -25 6 -25 14 0 7
-14 16 -31 20 -17 3 -28 10 -24 16 4 6 -7 13 -24 16 -17 4 -31 10 -31 14 0 10
-120 50 -148 50 -12 0 -39 9 -59 20 -21 11 -44 20 -52 20 -11 0 -12 18 -6 100
6 93 2 127 -22 190 -10 26 -2 124 11 140 8 8 21 32 31 53 10 21 31 51 46 67
16 16 29 33 29 39 0 6 16 21 35 33 20 13 38 33 41 46 4 12 11 22 16 22 12 0
58 47 58 59 0 5 9 19 19 33 11 13 23 37 26 51 4 15 13 27 20 27 7 0 15 14 19
32 3 17 14 40 23 50 14 16 17 37 15 114 -1 51 3 94 8 94 5 0 14 16 21 35 7 19
16 35 21 35 10 0 58 49 58 60 0 6 7 10 15 10 9 0 18 12 22 30 3 17 12 30 19
30 7 0 18 9 24 20 6 11 15 20 20 20 5 0 26 16 47 36 20 20 47 43 60 51 13 8
23 22 23 29 0 8 7 14 15 14 8 0 15 4 15 8 0 5 11 22 25 38 19 21 24 36 19 54
-7 32 -13 37 -23 21 -5 -7 -35 -15 -70 -18 -33 -3 -66 -12 -72 -19 -6 -8 -25
-14 -41 -14 -16 0 -31 -6 -34 -14 -3 -8 -26 -17 -52 -21 -26 -4 -50 -12 -54
-18 -4 -7 -57 -13 -139 -15 -109 -4 -134 -2 -143 11 -6 8 -35 18 -65 22 -29 4
-65 13 -79 21 -15 8 -43 14 -63 14 -20 0 -42 7 -49 15 -8 10 -30 15 -64 15
-30 0 -60 6 -72 15 -14 11 -51 14 -156 15 -127 0 -138 2 -148 20 -6 11 -20 20
-30 20 -11 0 -20 7 -20 15 0 8 -7 15 -15 15 -9 0 -18 7 -21 15 -4 8 -12 15
-19 15 -17 0 -135 113 -135 128 0 7 -7 12 -15 12 -8 0 -15 5 -15 10 0 6 -12
23 -27 37 -16 14 -27 29 -26 34 2 4 -6 11 -17 14 -11 4 -20 12 -20 20 0 7 -11
16 -25 19 -14 4 -25 11 -25 16 0 16 -60 12 -66 -5z m1346 -865 c0 -5 -4 -10
-10 -10 -5 0 -10 5 -10 10 0 6 5 10 10 10 6 0 10 -4 10 -10z"/>
</g>
</svg>
